<?xml version="1.0" encoding="UTF-8" standalone="no"?>
<svg
   xmlns:dc="http://purl.org/dc/elements/1.1/"
   xmlns:cc="http://creativecommons.org/ns#"
   xmlns:rdf="http://www.w3.org/1999/02/22-rdf-syntax-ns#"
   xmlns:svg="http://www.w3.org/2000/svg"
   xmlns="http://www.w3.org/2000/svg"
   xmlns:sodipodi="http://sodipodi.sourceforge.net/DTD/sodipodi-0.dtd"
   xmlns:inkscape="http://www.inkscape.org/namespaces/inkscape"
   style="display: block; --color:#00adcc; --light-color:#3dd9f5; --lighter-color:#75ddf0;"
   width="17.38368in"
   height="17.591278in"
   viewBox="0 0 441.5455 446.81845"
   version="1.1"
   id="logo2019"
   inkscape:version="1.0 (4035a4f, 2020-05-01)"
   sodipodi:docname="Coolest Tool Award Logo no beaters.svg"
   inkscape:export-filename="/Users/jkn/dev/coolest-tool-award-transition-screens/public/Coolest Tool Award Logo no beaters.png"
   inkscape:export-xdpi="242.52"
   inkscape:export-ydpi="242.52">
  <title
     id="title1493">Wikimedia 2019 Coolest Tool Award (square)</title>
  <defs
     id="defs2" />
  <sodipodi:namedview
     inkscape:snap-text-baseline="false"
     id="base"
     pagecolor="#ffffff"
     bordercolor="#666666"
     borderopacity="1.0"
     inkscape:pageopacity="0.0"
     inkscape:pageshadow="2"
     inkscape:zoom="0.35355339"
     inkscape:cx="841.18399"
     inkscape:cy="853.86317"
     inkscape:document-units="px"
     inkscape:current-layer="layer18"
     showgrid="false"
     units="in"
     inkscape:window-width="1344"
     inkscape:window-height="1035"
     inkscape:window-x="0"
     inkscape:window-y="23"
     inkscape:window-maximized="0"
     inkscape:pagecheckerboard="false"
     inkscape:measure-start="0,0"
     inkscape:measure-end="0,0"
     showguides="true"
     inkscape:guide-bbox="true"
     fit-margin-top="0.1"
     fit-margin-left="0.1"
     fit-margin-right="0.1"
     fit-margin-bottom="0.1"
     inkscape:showpageshadow="false"
     inkscape:document-rotation="0" />
  <metadata
     id="metadata5">
    <rdf:rdf>
      <cc:work
         rdf:about="">
        <dc:format>image/svg+xml</dc:format>
        <dc:type
           rdf:resource="http://purl.org/dc/dcmitype/StillImage" />
        <dc:title>Wikimedia 2019 Coolest Tool Award (square)</dc:title>
        <dc:date>2019-07-26</dc:date>
        <dc:creator>
          <cc:agent>
            <dc:title>Bryan Davis</dc:title>
          </cc:agent>
        </dc:creator>
        <cc:license
           rdf:resource="http://creativecommons.org/publicdomain/zero/1.0/" />
      </cc:work>
      <cc:license
         rdf:about="http://creativecommons.org/publicdomain/zero/1.0/">
        <cc:permits
           rdf:resource="http://creativecommons.org/ns#Reproduction" />
        <cc:permits
           rdf:resource="http://creativecommons.org/ns#Distribution" />
        <cc:permits
           rdf:resource="http://creativecommons.org/ns#DerivativeWorks" />
      </cc:license>
    </rdf:rdf>
    <rdf:RDF>
      <cc:Work
         rdf:about="">
        <dc:format>image/svg+xml</dc:format>
        <dc:type
           rdf:resource="http://purl.org/dc/dcmitype/StillImage" />
      </cc:Work>
    </rdf:RDF>
  </metadata>
  <g
     inkscape:groupmode="layer"
     id="layer18"
     inkscape:label="BIG TEXT 7"
     style="display: inline;"
     transform="translate(-73.742477,-196.58163)">
    <g
       aria-label="'20"
       id="text928"
       style="font-style:normal;font-variant:normal;font-weight:normal;font-stretch:condensed;font-size:88.1945px;line-height:1.25;font-family:Impact;-inkscape-font-specification:'Impact, Condensed';font-variant-ligatures:normal;font-variant-caps:normal;font-variant-numeric:normal;font-variant-east-asian:normal;letter-spacing:0px;fill:#00adcc;fill-opacity:1;stroke:none;stroke-width:0.264583">
      <path
         d="m 91.763435,406.39831 -2.282378,-11.75639 v -10.67981 h 13.177503 v 10.67981 l -1.98093,11.75639 z"
         style="font-style:normal;font-variant:normal;font-weight:normal;font-stretch:condensed;font-size:88.1945px;font-family:Impact;-inkscape-font-specification:'Impact, Condensed';font-variant-ligatures:normal;font-variant-caps:normal;font-variant-numeric:normal;font-variant-east-asian:normal;fill:#00adcc;fill-opacity:1;stroke-width:0.264583"
         id="path59" />
      <path
         d="m 144.90407,441.79669 v 11.88559 h -38.28365 v -9.94772 q 17.01017,-27.81916 20.19688,-34.40791 3.22978,-6.63182 3.22978,-10.3353 0,-2.8422 -0.99046,-4.22024 -0.9474,-1.4211 -2.92834,-1.4211 -1.98093,0 -2.97139,1.55029 -0.9474,1.55029 -0.9474,6.15811 v 6.63182 h -15.58907 v -2.54076 q 0,-5.85667 0.60289,-9.21564 0.60289,-3.40203 2.9714,-6.67488 2.3685,-3.27284 6.15811,-4.95233 3.78961,-1.67948 9.08644,-1.67948 10.37836,0 15.6752,5.16765 5.3399,5.12458 5.3399,13.00524 0,5.98586 -3.01446,12.66073 -2.9714,6.67488 -17.61306,28.33593 z"
         style="letter-spacing:-1.32292px"
         id="path61" />
      <path
         d="m 191.38188,407.56103 v 23.25441 q 0,7.92373 -0.86127,11.54108 -0.86128,3.61736 -3.57429,6.76101 -2.71302,3.14365 -6.54569,4.52169 -3.83267,1.37804 -8.56968,1.37804 -6.24424,0 -10.37836,-1.42111 -4.13411,-1.46416 -6.58875,-4.52169 -2.45463,-3.05752 -3.48816,-6.41649 -1.03353,-3.40204 -1.03353,-10.76593 v -24.33101 q 0,-9.60321 1.63643,-14.38328 1.67948,-4.78007 6.58874,-7.66534 4.95233,-2.88527 11.97172,-2.88527 5.72747,0 10.24917,2.02399 4.52169,1.98094 6.761,4.8662 2.23931,2.88527 3.01446,6.50263 0.81821,3.61735 0.81821,11.54107 z m -17.39774,-5.85666 q 0,-5.55522 -0.55983,-6.93326 -0.51677,-1.4211 -2.4977,-1.4211 -1.93786,0 -2.58382,1.50723 -0.60289,1.46416 -0.60289,6.84713 v 34.02034 q 0,6.07198 0.55983,7.32083 0.60289,1.24885 2.54076,1.24885 1.93786,0 2.54076,-1.46417 0.60289,-1.46416 0.60289,-6.58875 z"
         style="letter-spacing:-1.32292px"
         id="path63" />
    </g>
    <g
       aria-label="TOOL AWARD"
       style="             font-style: normal;             font-variant: normal;             font-weight: normal;             font-stretch: condensed;             font-size: 88.1944px;             line-height: 125%;             font-family: Impact;             -inkscape-font-specification: 'Impact, Condensed';             font-variant-ligatures: normal;             font-variant-caps: normal;             font-variant-numeric: normal;             text-align: start;             letter-spacing: -2.64583px;             word-spacing: -2.64583px;             writing-mode: lr-tb;             text-anchor: start;             display: inline;             fill: #666666;             fill-opacity: 1;             stroke: none;             stroke-width: 0.264583px;             stroke-linecap: butt;             stroke-linejoin: miter;             stroke-opacity: 1;           "
       id="text5286"
       inkscape:label="tool award">
      <path
         d="m 129.09846,461.09952 v 13.95264 h -10.76592 v 55.76748 H 100.20272 V 475.05216 H 89.479861 v -13.95264 z"
         style="               letter-spacing: -2.64583px;               word-spacing: -2.64583px;               fill: #666666;               fill-opacity: 1;               stroke-width: 0.264583px;             "
         id="path4978"
         inkscape:connector-curvature="0" />
      <path
         d="m 172.01401,501.9239 q 0,10.50754 -0.51676,14.90004 -0.4737,4.34943 -3.10059,7.96678 -2.58382,3.61735 -7.01938,5.55522 -4.43556,1.93787 -10.33528,1.93787 -5.59828,0 -10.07691,-1.80868 -4.43556,-1.85174 -7.14857,-5.51215 -2.71301,-3.66041 -3.22978,-7.96678 -0.51676,-4.30637 -0.51676,-15.0723 v -11.92864 q 0,-10.50754 0.4737,-14.85697 0.51676,-4.3925 3.10058,-8.00985 2.62689,-3.61735 7.06245,-5.55522 4.43556,-1.93786 10.33529,-1.93786 5.59828,0 10.03384,1.85174 4.47862,1.80867 7.19163,5.46908 2.71301,3.66042 3.22978,7.96679 0.51676,4.30637 0.51676,15.07229 z M 153.8842,479.01402 q 0,-4.8662 -0.55983,-6.20117 -0.51676,-1.37804 -2.19625,-1.37804 -1.4211,0 -2.19625,1.11965 -0.73208,1.0766 -0.73208,6.45956 v 32.55615 q 0,6.07198 0.4737,7.49308 0.51677,1.4211 2.32544,1.4211 1.85174,0 2.3685,-1.63642 0.51677,-1.63642 0.51677,-7.79452 z"
         style="               letter-spacing: -2.64583px;               word-spacing: -2.64583px;               fill: #666666;               fill-opacity: 1;               stroke-width: 0.264583px;             "
         id="path4980"
         inkscape:connector-curvature="0" />
      <path
         d="m 217.59952,501.9239 q 0,10.50754 -0.51677,14.90004 -0.4737,4.34943 -3.10058,7.96678 -2.58383,3.61735 -7.01939,5.55522 -4.43556,1.93787 -10.33528,1.93787 -5.59828,0 -10.07691,-1.80868 -4.43556,-1.85174 -7.14857,-5.51215 -2.71301,-3.66041 -3.22978,-7.96678 -0.51676,-4.30637 -0.51676,-15.0723 v -11.92864 q 0,-10.50754 0.4737,-14.85697 0.51676,-4.3925 3.10059,-8.00985 2.62688,-3.61735 7.06244,-5.55522 4.43556,-1.93786 10.33529,-1.93786 5.59828,0 10.03384,1.85174 4.47862,1.80867 7.19163,5.46908 2.71302,3.66042 3.22978,7.96679 0.51677,4.30637 0.51677,15.07229 z M 199.4697,479.01402 q 0,-4.8662 -0.55983,-6.20117 -0.51676,-1.37804 -2.19624,-1.37804 -1.42111,0 -2.19625,1.11965 -0.73209,1.0766 -0.73209,6.45956 v 32.55615 q 0,6.07198 0.4737,7.49308 0.51677,1.4211 2.32544,1.4211 1.85174,0 2.36851,-1.63642 0.51676,-1.63642 0.51676,-7.79452 z"
         style="               letter-spacing: -2.64583px;               word-spacing: -2.64583px;               fill: #666666;               fill-opacity: 1;               stroke-width: 0.264583px;             "
         id="path4982"
         inkscape:connector-curvature="0" />
      <path
         d="M 239.88755,461.09952 V 516.867 h 11.02431 v 13.95264 h -29.15412 v -69.72012 z"
         style="               letter-spacing: -2.64583px;               word-spacing: -2.64583px;               fill: #666666;               fill-opacity: 1;               stroke-width: 0.264583px;             "
         id="path4984"
         inkscape:connector-curvature="0" />
      <path
         d="m 294.22016,461.09952 10.37835,69.72012 h -18.56045 l -0.90434,-12.53153 h -6.50261 l -1.07659,12.53153 h -18.77577 l 9.21563,-69.72012 z m -9.6032,44.82931 q -1.37804,-11.84252 -2.75608,-29.24025 -2.75607,19.98155 -3.44509,29.24025 z"
         style="               letter-spacing: -2.64583px;               word-spacing: -2.64583px;               fill: #666666;               fill-opacity: 1;               stroke-width: 0.264583px;             "
         id="path4986"
         inkscape:connector-curvature="0" />
      <path
         d="m 373.26614,461.09952 -8.05291,69.72012 h -22.6515 q -3.10058,-16.06276 -5.46909,-36.51801 -1.07659,8.74193 -5.03845,36.51801 h -22.52231 l -8.09597,-69.72012 h 17.61305 l 1.85173,24.33099 1.89481,23.46971 q 0.99046,-18.21594 4.99539,-47.8007 h 18.86189 q 0.38758,3.05752 1.98093,22.99601 l 1.98093,26.48418 q 1.50723,-25.27839 5.03845,-49.48019 z"
         style="               letter-spacing: -2.64583px;               word-spacing: -2.64583px;               fill: #666666;               fill-opacity: 1;               stroke-width: 0.264583px;             "
         id="path4988"
         inkscape:connector-curvature="0" />
      <path
         d="m 405.54498,461.09952 10.37835,69.72012 h -18.56045 l -0.90434,-12.53153 h -6.50262 l -1.07659,12.53153 h -18.77577 l 9.21563,-69.72012 z m -9.60321,44.82931 q -1.37803,-11.84252 -2.75607,-29.24025 -2.75608,19.98155 -3.4451,29.24025 z"
         style="               letter-spacing: -2.64583px;               word-spacing: -2.64583px;               fill: #666666;               fill-opacity: 1;               stroke-width: 0.264583px;             "
         id="path4990"
         inkscape:connector-curvature="0" />
      <path
         d="m 416.37808,461.09952 h 12.83299 q 12.83298,0 17.35466,0.99047 4.56475,0.99046 7.40696,5.08151 2.88527,4.04799 2.88527,12.96217 0,8.13904 -2.024,10.93818 -2.02399,2.79914 -7.96678,3.35897 5.38296,1.33498 7.2347,3.57429 1.85174,2.23931 2.28238,4.13411 0.4737,1.85174 0.4737,10.29222 v 18.3882 h -16.83791 v -23.16827 q 0,-5.59828 -0.90434,-6.93325 -0.86127,-1.33497 -4.60781,-1.33497 v 31.43649 h -18.12982 z m 18.12982,11.92865 v 15.50292 q 3.05752,0 4.2633,-0.81821 1.24885,-0.86127 1.24885,-5.46908 v -3.83267 q 0,-3.31591 -1.20578,-4.34944 -1.16272,-1.03352 -4.30637,-1.03352 z"
         style="               letter-spacing: -2.64583px;               word-spacing: -2.64583px;               fill: #666666;               fill-opacity: 1;               stroke-width: 0.264583px;             "
         id="path4992"
         inkscape:connector-curvature="0" />
      <path
         d="m 461.27454,461.09952 h 13.56506 q 13.13443,0 17.74224,1.20579 4.65088,1.20578 7.06245,3.96186 2.41157,2.75607 3.01446,6.1581 0.60289,3.35897 0.60289,13.26362 V 510.106 q 0,9.38789 -0.90434,12.5746 -0.86127,3.14365 -3.05752,4.95233 -2.19625,1.76561 -5.42603,2.49769 -3.22977,0.68902 -9.73239,0.68902 h -22.86682 z m 18.12981,11.92865 V 518.891 q 3.9188,0 4.82314,-1.55029 0.90433,-1.59336 0.90433,-8.56968 v -27.08706 q 0,-4.73701 -0.30144,-6.07198 -0.30145,-1.33498 -1.37804,-1.93787 -1.07659,-0.64595 -4.04799,-0.64595 z"
         style="               letter-spacing: -2.64583px;               word-spacing: -2.64583px;               fill: #666666;               fill-opacity: 1;               stroke-width: 0.264583px;             "
         id="path4994"
         inkscape:connector-curvature="0" />
    </g>
    <g
       aria-label="COOLEST"
       style="             font-style: normal;             font-variant: normal;             font-weight: normal;             font-stretch: condensed;             font-size: 88.1944px;             line-height: 125%;             font-family: Impact;             -inkscape-font-specification: 'Impact, Condensed';             font-variant-ligatures: normal;             font-variant-caps: normal;             font-variant-numeric: normal;             text-align: start;             letter-spacing: 0px;             word-spacing: 0px;             writing-mode: lr-tb;             text-anchor: start;             display: inline;             fill: #666666;             fill-opacity: 1;             stroke: none;             stroke-width: 0.264583px;             stroke-linecap: butt;             stroke-linejoin: miter;             stroke-opacity: 1;           "
       id="text5282"
       inkscape:label="coolest">
      <path
         d="m 249.02324,415.31081 h -18.12981 v -12.14396 q 0,-5.29684 -0.6029,-6.58875 -0.55982,-1.33497 -2.54075,-1.33497 -2.23932,0 -2.84221,1.59335 -0.60289,1.59336 -0.60289,6.8902 v 32.38389 q 0,5.08152 0.60289,6.63181 0.60289,1.55029 2.71301,1.55029 2.024,0 2.62689,-1.55029 0.64596,-1.55029 0.64596,-7.27776 v -8.74193 h 18.12981 v 2.71301 q 0,10.80899 -1.55029,15.33067 -1.50723,4.52169 -6.761,7.92372 -5.21071,3.40204 -12.87605,3.40204 -7.96678,0 -13.13442,-2.88527 -5.16765,-2.88527 -6.84713,-7.96678 -1.67948,-5.12458 -1.67948,-15.37374 v -20.36913 q 0,-7.53615 0.51676,-11.28269 0.51676,-3.7896 3.05752,-7.27776 2.58382,-3.48816 7.10551,-5.46909 4.56475,-2.02399 10.46448,-2.02399 8.00985,0 13.22055,3.10058 5.21071,3.10059 6.84713,7.75147 1.63642,4.60781 1.63642,14.38327 z"
         style="               letter-spacing: 0px;               fill: #666666;               fill-opacity: 1;               stroke-width: 0.264583px;             "
         id="path4963"
         inkscape:connector-curvature="0" />
      <path
         d="m 297.03926,425.73222 q 0,10.50754 -0.51677,14.90004 -0.4737,4.34943 -3.10058,7.96678 -2.58382,3.61735 -7.01938,5.55522 -4.43556,1.93787 -10.33529,1.93787 -5.59828,0 -10.0769,-1.80868 -4.43556,-1.85174 -7.14858,-5.51215 -2.71301,-3.66042 -3.22977,-7.96679 -0.51677,-4.30636 -0.51677,-15.07229 v -11.92864 q 0,-10.50754 0.4737,-14.85697 0.51677,-4.3925 3.10059,-8.00985 2.62688,-3.61735 7.06244,-5.55522 4.43556,-1.93786 10.33529,-1.93786 5.59828,0 10.03384,1.85173 4.47863,1.80868 7.19164,5.46909 2.71301,3.66042 3.22977,7.96679 0.51677,4.30637 0.51677,15.07229 z m -18.12982,-22.90988 q 0,-4.8662 -0.55982,-6.20117 -0.51677,-1.37804 -2.19625,-1.37804 -1.4211,0 -2.19625,1.11965 -0.73208,1.0766 -0.73208,6.45956 v 32.55615 q 0,6.07198 0.4737,7.49308 0.51676,1.4211 2.32544,1.4211 1.85174,0 2.3685,-1.63642 0.51676,-1.63642 0.51676,-7.79452 z"
         style="               letter-spacing: 0px;               fill: #666666;               fill-opacity: 1;               stroke-width: 0.264583px;             "
         id="path4965"
         inkscape:connector-curvature="0" />
      <path
         d="m 345.27059,425.73222 q 0,10.50754 -0.51676,14.90004 -0.4737,4.34943 -3.10059,7.96678 -2.58382,3.61735 -7.01938,5.55522 -4.43556,1.93787 -10.33529,1.93787 -5.59828,0 -10.0769,-1.80868 -4.43556,-1.85174 -7.14858,-5.51215 -2.71301,-3.66042 -3.22977,-7.96679 -0.51677,-4.30636 -0.51677,-15.07229 v -11.92864 q 0,-10.50754 0.4737,-14.85697 0.51677,-4.3925 3.10059,-8.00985 2.62689,-3.61735 7.06245,-5.55522 4.43556,-1.93786 10.33528,-1.93786 5.59828,0 10.03384,1.85173 4.47863,1.80868 7.19164,5.46909 2.71301,3.66042 3.22978,7.96679 0.51676,4.30637 0.51676,15.07229 z m -18.12981,-22.90988 q 0,-4.8662 -0.55983,-6.20117 -0.51677,-1.37804 -2.19625,-1.37804 -1.4211,0 -2.19625,1.11965 -0.73208,1.0766 -0.73208,6.45956 v 32.55615 q 0,6.07198 0.4737,7.49308 0.51676,1.4211 2.32544,1.4211 1.85174,0 2.3685,-1.63642 0.51677,-1.63642 0.51677,-7.79452 z"
         style="               letter-spacing: 0px;               fill: #666666;               fill-opacity: 1;               stroke-width: 0.264583px;             "
         id="path4967"
         inkscape:connector-curvature="0" />
      <path
         d="m 370.20447,384.90784 v 55.76748 h 11.02431 v 13.95264 h -29.15412 v -69.72012 z"
         style="               letter-spacing: 0px;               fill: #666666;               fill-opacity: 1;               stroke-width: 0.264583px;             "
         id="path4969"
         inkscape:connector-curvature="0" />
      <path
         d="m 385.66433,384.90784 h 30.23071 v 13.95264 h -12.10089 v 13.22055 h 11.32575 v 13.26362 h -11.32575 v 15.33067 h 13.30668 v 13.95264 h -31.4365 z"
         style="               letter-spacing: 0px;               fill: #666666;               fill-opacity: 1;               stroke-width: 0.264583px;             "
         id="path4971"
         inkscape:connector-curvature="0" />
      <path
         d="M 460.76741,406.00905 H 443.9295 v -5.16764 q 0,-3.61735 -0.64595,-4.60782 -0.64596,-0.99046 -2.15319,-0.99046 -1.63642,0 -2.49769,1.33497 -0.81821,1.33498 -0.81821,4.04799 0,3.48816 0.9474,5.25377 0.90434,1.76561 5.12458,4.26331 12.1009,7.19163 15.24455,11.79945 3.14365,4.60781 3.14365,14.85697 0,7.45002 -1.76561,10.98124 -1.72255,3.53123 -6.71794,5.94279 -4.99539,2.36851 -11.6272,2.36851 -7.27776,0 -12.4454,-2.75608 -5.12458,-2.75608 -6.71794,-7.01938 -1.59336,-4.26331 -1.59336,-12.1009 v -4.56475 h 16.83791 v 8.48355 q 0,3.91879 0.68902,5.03845 0.73208,1.11965 2.54075,1.11965 1.80868,0 2.66995,-1.4211 0.90434,-1.4211 0.90434,-4.22024 0,-6.15811 -1.67948,-8.05291 -1.72255,-1.8948 -8.48355,-6.33036 -6.761,-4.47863 -8.95725,-6.50262 -2.19625,-2.02399 -3.66041,-5.59828 -1.42111,-3.57429 -1.42111,-9.1295 0,-8.00985 2.024,-11.71333 2.06706,-3.70348 6.63181,-5.77053 4.56475,-2.11012 11.0243,-2.11012 7.06245,0 12.01477,2.28237 4.99539,2.28238 6.58875,5.77054 1.63642,3.44509 1.63642,11.75638 z"
         style="               letter-spacing: 0px;               fill: #666666;               fill-opacity: 1;               stroke-width: 0.264583px;             "
         id="path4973"
         inkscape:connector-curvature="0" />
      <path
         d="m 504.52013,384.90784 v 13.95264 H 493.7542 v 55.76748 h -18.12981 v -55.76748 h -10.72286 v -13.95264 z"
         style="               letter-spacing: 0px;               fill: #666666;               fill-opacity: 1;               stroke-width: 0.264583px;             "
         id="path4975"
         inkscape:connector-curvature="0" />
    </g>
    <g
       aria-label="WIKIMEDIA"
       style="             font-style: normal;             font-variant: normal;             font-weight: normal;             font-stretch: condensed;             font-size: 88.1944px;             line-height: 125%;             font-family: Impact;             -inkscape-font-specification: 'Impact, Condensed';             font-variant-ligatures: normal;             font-variant-caps: normal;             font-variant-numeric: normal;             text-align: start;             letter-spacing: 3.175px;             word-spacing: 0px;             writing-mode: lr-tb;             text-anchor: start;             display: inline;             fill: #666666;             fill-opacity: 1;             stroke: none;             stroke-width: 0.264583px;             stroke-linecap: butt;             stroke-linejoin: miter;             stroke-opacity: 1;           "
       id="text5278"
       inkscape:label="wikimedia">
      <path
         d="m 161.31009,308.71616 -8.05291,69.72012 h -22.6515 q -3.10059,-16.06276 -5.46909,-36.51801 -1.07659,8.74193 -5.03845,36.51801 H 97.575825 L 89.479851,308.71616 H 107.0929 l 1.85174,24.33099 1.8948,23.46971 q 0.99047,-18.21594 4.99539,-47.8007 h 18.8619 q 0.38757,3.05752 1.98093,22.99601 l 1.98093,26.48417 q 1.50723,-25.27838 5.03845,-49.48018 z"
         style="               letter-spacing: 3.175px;               fill: #666666;               fill-opacity: 1;               stroke-width: 0.264583px;             "
         id="path4937"
         inkscape:connector-curvature="0" />
      <path
         d="m 186.23226,308.71616 v 69.72012 h -18.12982 v -69.72012 z"
         style="               letter-spacing: 3.175px;               fill: #666666;               fill-opacity: 1;               stroke-width: 0.264583px;             "
         id="path4939"
         inkscape:connector-curvature="0" />
      <path
         d="m 239.96403,308.71616 -10.37835,31.47956 11.36881,38.24056 h -18.7327 l -7.32083,-29.8862 v 29.8862 h -18.12982 v -69.72012 h 18.12982 v 27.08706 l 8.05291,-27.08706 z"
         style="               letter-spacing: 3.175px;               fill: #666666;               fill-opacity: 1;               stroke-width: 0.264583px;             "
         id="path4941"
         inkscape:connector-curvature="0" />
      <path
         d="m 265.44603,308.71616 v 69.72012 h -18.12982 v -69.72012 z"
         style="               letter-spacing: 3.175px;               fill: #666666;               fill-opacity: 1;               stroke-width: 0.264583px;             "
         id="path4943"
         inkscape:connector-curvature="0" />
      <path
         d="m 331.92465,308.71616 v 69.72012 h -15.84744 v -47.06862 l -6.33036,47.06862 h -11.23963 l -6.67487,-45.99202 v 45.99202 h -15.84744 v -69.72012 h 23.46971 q 1.03353,6.2873 2.19625,14.81391 l 2.4977,17.74224 4.13411,-32.55615 z"
         style="               letter-spacing: 3.175px;               fill: #666666;               fill-opacity: 1;               stroke-width: 0.264583px;             "
         id="path4945"
         inkscape:connector-curvature="0" />
      <path
         d="m 342.37741,308.71616 h 30.23072 v 13.95264 h -12.1009 v 13.22055 h 11.32575 v 13.26362 h -11.32575 v 15.33067 h 13.30668 v 13.95264 h -31.4365 z"
         style="               letter-spacing: 3.175px;               fill: #666666;               fill-opacity: 1;               stroke-width: 0.264583px;             "
         id="path4947"
         inkscape:connector-curvature="0" />
      <path
         d="m 382.24268,308.71616 h 13.56506 q 13.13443,0 17.74224,1.20578 4.65088,1.20579 7.06245,3.96186 2.41157,2.75608 3.01446,6.15811 0.60289,3.35897 0.60289,13.26362 v 24.41711 q 0,9.38789 -0.90434,12.5746 -0.86127,3.14365 -3.05752,4.95233 -2.19625,1.76561 -5.42603,2.49769 -3.22977,0.68902 -9.73239,0.68902 h -22.86682 z m 18.12981,11.92864 v 45.86284 q 3.9188,0 4.82314,-1.5503 0.90433,-1.59335 0.90433,-8.56967 v -27.08706 q 0,-4.73701 -0.30144,-6.07198 -0.30145,-1.33498 -1.37804,-1.93787 -1.07659,-0.64596 -4.04799,-0.64596 z"
         style="               letter-spacing: 3.175px;               fill: #666666;               fill-opacity: 1;               stroke-width: 0.264583px;             "
         id="path4949"
         inkscape:connector-curvature="0" />
      <path
         d="m 452.29559,308.71616 v 69.72012 h -18.12982 v -69.72012 z"
         style="               letter-spacing: 3.175px;               fill: #666666;               fill-opacity: 1;               stroke-width: 0.264583px;             "
         id="path4951"
         inkscape:connector-curvature="0" />
      <path
         d="m 494.14178,308.71616 10.37835,69.72012 h -18.56045 l -0.90434,-12.53154 h -6.50262 l -1.07659,12.53154 h -18.77577 l 9.21563,-69.72012 z m -9.6032,44.8293 q -1.37804,-11.84251 -2.75608,-29.24024 -2.75608,19.98155 -3.4451,29.24024 z"
         style="               letter-spacing: 3.175px;               fill: #666666;               fill-opacity: 1;               stroke-width: 0.264583px;             "
         id="path4953"
         inkscape:connector-curvature="0" />
    </g>
  </g>
</svg>
